<?xml version="1.0" encoding="UTF-8"?>
<svg id="Section_3" xmlns="http://www.w3.org/2000/svg" viewBox="0 0 512 512"><defs><style>.cls-1{fill:#fffdfd;stroke:#000;stroke-miterlimit:10;stroke-width:3px;}</style></defs><g id="Hosting"><path class="cls-1" d="m371.07,302.82h-230.12c-7.36,0-13.36,5.96-13.36,13.33v45.37c0,7.37,6,13.34,13.36,13.34h230.12c7.35,0,13.35-5.97,13.35-13.34v-45.37c0-7.37-6.01-13.33-13.35-13.33Zm-219.42,31.6c-4.55,0-8.23-3.65-8.23-8.23s3.69-8.22,8.23-8.22,8.23,3.67,8.23,8.22-3.67,8.23-8.23,8.23Zm197.67,23.72h-58.13v-19.31h58.14v19.31h0Z"/><path class="cls-1" d="m371.07,223.46h-230.12c-7.36,0-13.36,5.96-13.36,13.34v45.37c0,7.37,6,13.33,13.36,13.33h230.12c7.35,0,13.35-5.97,13.35-13.33v-45.37c0-7.38-6.01-13.34-13.35-13.34Zm-219.42,31.61c-4.55,0-8.23-3.66-8.23-8.23s3.69-8.24,8.23-8.24,8.23,3.7,8.23,8.24-3.67,8.23-8.23,8.23Zm197.67,23.72h-58.13v-19.31h58.14v19.31h0Z"/><path class="cls-1" d="m371.07,144.11h-230.12c-7.36,0-13.36,5.95-13.36,13.33v45.37c0,7.38,6,13.33,13.36,13.33h230.12c7.35,0,13.35-5.95,13.35-13.33v-45.37c0-7.38-6.01-13.33-13.35-13.33Zm-219.42,31.6c-4.55,0-8.23-3.68-8.23-8.23s3.69-8.22,8.23-8.22,8.23,3.69,8.23,8.22-3.67,8.23-8.23,8.23Zm197.67,23.72h-58.13v-19.31h58.14v19.31h0Z"/></g><polygon id="BBR" class="cls-1" points="236 68 236 90 224 90 224 120 210 120 210 200 204 200 204 396 210 396 210 414 204 414 204 432 308 432 308 414 302 414 302 396 308 396 308 200 302 200 302 120 288 120 288 90 276 90 276 68 236 68"/></svg>